<?xml version="1.0" encoding="UTF-8"?>
<svg width="98px" height="98px" viewBox="0 0 98 98" version="1.1" xmlns="http://www.w3.org/2000/svg">
    <g stroke="none" stroke-width="1" fill="none" fill-rule="evenodd">
        <g fill="currentColor">
            <path d="M20.7,50.7 C20.7,55.3 16.9,59.1 12.3,59.1 C7.7,59.1 3.9,55.3 3.9,50.7 C3.9,46.1 7.7,42.3 12.3,42.3 L20.7,42.3 L20.7,50.7 Z M25.1,50.7 C25.1,46.1 28.9,42.3 33.5,42.3 C38.1,42.3 41.9,46.1 41.9,50.7 L41.9,72 C41.9,76.6 38.1,80.4 33.5,80.4 C28.9,80.4 25.1,76.6 25.1,72 L25.1,50.7 Z M33.5,20.7 C28.9,20.7 25.1,16.9 25.1,12.3 C25.1,7.7 28.9,3.9 33.5,3.9 C38.1,3.9 41.9,7.7 41.9,12.3 L41.9,20.7 L33.5,20.7 Z M33.5,25.1 C38.1,25.1 41.9,28.9 41.9,33.5 C41.9,38.1 38.1,41.9 33.5,41.9 L12.3,41.9 C7.7,41.9 3.9,38.1 3.9,33.5 C3.9,28.9 7.7,25.1 12.3,25.1 L33.5,25.1 Z M63.5,33.5 C63.5,28.9 67.3,25.1 71.9,25.1 C76.5,25.1 80.3,28.9 80.3,33.5 C80.3,38.1 76.5,41.9 71.9,41.9 L63.5,41.9 L63.5,33.5 Z M59.1,33.5 C59.1,38.1 55.3,41.9 50.7,41.9 C46.1,41.9 42.3,38.1 42.3,33.5 L42.3,12.3 C42.3,7.7 46.1,3.9 50.7,3.9 C55.3,3.9 59.1,7.7 59.1,12.3 L59.1,33.5 Z M50.7,63.5 C55.3,63.5 59.1,67.3 59.1,71.9 C59.1,76.5 55.3,80.3 50.7,80.3 C46.1,80.3 42.3,76.5 42.3,71.9 L42.3,63.5 L50.7,63.5 Z M50.7,59.1 C46.1,59.1 42.3,55.3 42.3,50.7 C42.3,46.1 46.1,42.3 50.7,42.3 L71.9,42.3 C76.5,42.3 80.3,46.1 80.3,50.7 C80.3,55.3 76.5,59.1 71.9,59.1 L50.7,59.1 Z"/>
        </g>
    </g>
</svg>
