<svg xmlns="http://www.w3.org/2000/svg" version="1.0" preserveAspectRatio="xMidYMid meet" viewBox="363.81 140.18 637.21 791.66"><metadata>Created by potrace 1.10, written by Peter Selinger 2001-2011</metadata><g transform="matrix(.1 0 0 -.1 0 1728)" fill="#000000" stroke="none"><path d="M6485.017 15870.038a777.371 777.371 0 0 0 -114.969 -9.001c-90.011 -2.046 -132.971 -14.013 -199.969 -55.03 -39.994 -24.958 -69.963 -36.005 -96.967 -36.005 -64.031 0 -114.049 -20.048 -172.045 -66.997 -30.993 -24.958 -59.019 -51.041 -63.008 -56.973s-32.015 -29.049 -61.985 -50.018c-46.949 -32.015 -60.962 -37.027 -87.966 -32.015 -78.965 16.979 -118.038 6.955 -172.045 -38.971 -48.995 -42.039 -91.955 -64.951 -119.981 -64.951 -6.955 0 -41.017 24.958 -74.975 56.973 -54.007 47.972 -69.043 56.973 -110.98 60.962l-48.995 3.989 -68.02 -66.997c-87.045 -86.022 -119.981 -101.979 -239.962 -115.992 -133.994 -15.957 -186.978 -37.027 -248.963 -100.956 -63.008 -64.951 -83.977 -127.959 -60.042 -181.046 7.978 -18.002 16.979 -46.029 20.969 -64.031 6.955 -33.959 -1.023 -43.983 -78.965 -105.968 -21.991 -18.002 -29.97 -34.982 -37.027 -75.998 -6.955 -46.029 -5.012 -61.985 20.969 -127.039 20.969 -51.041 29.97 -91.955 29.97 -132.051 1.023 -51.961 15.957 -121.004 51.041 -225.949 7.978 -21.991 36.005 -64.951 64.031 -95.023 68.02 -73.953 78.965 -103.002 69.963 -188.001 -3.989 -37.027 -11.047 -73.032 -15.957 -78.965 -10.024 -12.99 -16.979 -104.025 -24.037 -339.998 -6.035 -177.977 9.001 -468.98 27.003 -539.046 6.035 -21.991 14.013 -79.987 20.048 -130.005 9.001 -92.978 21.991 -163.964 60.042 -347.976 15.957 -75.998 28.026 -110.98 41.017 -118.038 12.99 -7.978 16.979 -23.014 16.979 -64.031 0 -29.97 5.012 -56.973 11.047 -60.962 19.025 -11.047 48.995 -87.966 48.995 -126.016 0 -20.048 3.989 -38.971 9.001 -42.039 19.025 -11.967 51.041 -87.966 51.041 -121.004 0 -19.025 5.012 -45.006 11.047 -59.019 9.001 -19.025 9.001 -41.017 0 -87.966 -39.994 -209.993 -51.041 -287.014 -42.96 -306.959 11.967 -30.993 73.032 -109.037 105.047 -132.971 29.97 -24.037 73.953 -38.971 106.991 -38.971s119.981 27.003 136.961 42.96c78.965 73.953 96.967 84.999 140.95 79.987 41.017 -3.989 46.029 -2.046 87.045 42.039 50.018 54.007 74.975 114.049 84.999 206.003 5.012 36.005 12.99 83.977 19.025 108.014 27.003 104.025 32.015 131.028 37.027 191.99 2.046 36.005 7.978 72.009 11.047 79.987 3.989 7.978 7.978 21.991 10.024 29.97 1.023 7.978 7.978 38.05 14.013 64.951 18.002 81.01 15.036 123.97 -20.048 230.041 -38.05 117.015 -54.007 265.022 -29.049 265.022 9.001 0 20.048 16.979 27.003 39.994 6.035 21.991 24.958 54.007 41.017 72.009 16.979 18.002 29.97 41.017 29.97 51.961s11.047 32.015 24.958 46.029c39.994 38.971 124.993 148.007 124.993 158.952 0 6.035 15.957 24.958 34.982 42.039 19.025 18.002 34.982 38.05 34.982 46.029 0 6.955 5.012 12.99 11.047 12.99s25.981 11.967 43.983 25.981c20.969 15.036 41.017 23.014 51.961 20.048 10.024 -2.966 43.983 -34.982 74.975 -69.963 42.039 -46.949 74.975 -73.032 121.004 -94.001 39.994 -19.025 94.001 -59.019 148.007 -109.037 46.029 -42.96 99.013 -91.034 118.038 -108.014 19.025 -15.957 51.041 -46.949 69.963 -66.997 47.972 -48.995 137.983 -108.014 164.987 -108.014s46.029 -18.002 46.029 -42.039c0 -10.024 3.989 -18.002 10.024 -18.002 5.012 0 27.003 -18.002 48.995 -39.994s47.972 -39.994 59.019 -39.994 36.005 -6.955 55.03 -15.036c43.983 -18.002 81.01 -19.025 105.968 -2.966 16.979 10.024 30.993 0 117.015 -86.022 54.007 -52.984 109.037 -101.979 123.05 -109.037 23.014 -11.047 25.981 -19.025 25.981 -60.962 1.023 -42.039 -6.035 -57.996 -51.961 -127.039 -29.049 -43.983 -52.984 -86.022 -52.984 -94.001s-11.047 -21.991 -24.958 -30.993 -24.958 -21.991 -24.958 -29.049c0 -6.035 -11.047 -33.038 -24.958 -60.042a409.143 409.143 0 0 1 -36.005 -96.967c-6.035 -28.026 -19.025 -57.996 -28.026 -66.997s-23.014 -47.972 -29.97 -86.022c-6.955 -38.971 -18.002 -77.021 -24.958 -84.999 -11.967 -15.036 -46.029 -141.973 -46.029 -173.988 0 -9.001 -9.001 -34.982 -20.969 -56.973 -12.99 -25.981 -18.002 -50.018 -14.013 -68.02 2.966 -15.036 -1.023 -42.96 -10.024 -64.031a235.257 235.257 0 0 1 -15.036 -72.009c0 -33.959 -11.967 -46.029 -24.958 -24.037 -5.012 6.955 -14.013 2.966 -25.981 -10.024 -21.991 -23.014 -77.021 -36.005 -114.049 -27.003 -30.993 7.978 -118.958 -38.971 -133.994 -70.986 -6.035 -12.99 -15.036 -23.014 -20.969 -23.014 -38.971 0 -55.95 -199.969 -20.969 -254.998 46.949 -73.953 130.005 -135.017 184.012 -135.017 14.013 0 29.97 -6.035 36.005 -14.013 6.955 -7.978 27.003 -18.002 43.983 -21.991 16.979 -2.966 54.007 -23.014 82.033 -42.96a511.429 511.429 0 0 1 79.987 -50.018c16.979 -6.955 56.973 -25.981 90.011 -41.017 68.02 -32.015 100.956 -45.006 164.987 -66.997 24.958 -9.001 56.973 -24.037 72.009 -33.959 14.013 -11.047 30.993 -19.025 37.027 -19.025 5.012 0 21.991 -11.047 37.027 -24.958s32.015 -24.958 38.971 -24.958 19.025 -6.955 25.981 -15.957c16.979 -20.969 92.978 -54.007 123.05 -54.007a92.057 92.057 0 0 0 42.96 -15.036c54.007 -38.05 185.035 30.993 197.002 104.025 2.966 20.969 14.013 48.995 24.037 61.985 37.027 47.972 42.96 90.011 39.994 287.014 -2.966 218.994 -1.023 227.995 65.974 217.05 82.033 -11.967 148.007 -16.979 169.999 -11.047 29.049 6.955 126.016 92.978 126.016 110.98 0 7.978 7.978 20.048 18.002 27.003s27.003 29.049 38.05 47.972c10.024 19.025 24.037 39.994 29.97 46.029 15.957 18.002 54.007 127.959 54.007 157.009a102.286 102.286 0 0 0 11.967 39.994c6.035 11.967 14.013 29.049 18.002 37.027s15.957 14.013 25.981 12.99c33.959 -3.989 90.011 28.026 127.039 70.986 32.015 38.971 36.005 48.995 38.05 112.003 1.023 38.05 -2.966 78.044 -7.978 88.989a255.714 255.714 0 0 0 -18.002 55.03c-21.991 110.98 -29.97 122.027 -131.028 177.977 -25.981 14.013 -41.017 78.965 -25.981 109.037 5.012 10.024 11.967 38.05 15.957 63.008s16.979 63.008 29.049 84.999c21.991 38.05 24.958 39.994 66.997 38.05 69.043 -2.966 118.038 -14.013 131.028 -29.049 6.035 -7.978 16.979 -14.013 23.014 -14.013 14.013 0 145.962 -124.993 145.962 -137.983 0 -11.047 87.966 -84.999 113.026 -95.023 29.049 -11.047 57.996 1.023 90.011 37.027 45.006 48.995 54.007 73.953 60.962 173.988 5.012 81.01 2.966 99.013 -14.013 136.961 -11.047 24.037 -20.048 47.972 -20.048 51.961 0 18.002 -159.975 181.046 -189.024 193.013 -16.979 6.955 -30.993 15.957 -30.993 20.969 0 9.001 -86.022 48.995 -105.968 48.995 -7.978 0 -14.013 3.989 -14.013 9.001 0 15.036 -82.954 39.994 -154.963 46.029 -100.956 9.001 -109.957 11.967 -126.016 41.017 -15.957 29.97 -78.965 73.953 -106.991 73.953 -11.047 0 -27.003 9.001 -37.027 20.048s-21.991 20.048 -25.981 20.048c-12.99 0 -91.955 55.95 -114.969 82.033 -16.979 16.979 -23.014 42.039 -29.049 101.979 -6.035 68.02 -11.047 82.954 -34.982 106.991 -37.027 37.027 -110.98 55.95 -249.986 64.031 -127.959 7.978 -191.99 29.97 -243.031 84.999 -15.957 15.957 -43.983 37.027 -63.008 46.029s-46.029 30.993 -59.019 47.972c-25.981 33.959 -124.993 224.006 -124.993 239.962 0 5.012 -15.036 41.017 -33.959 79.987s-52.984 114.049 -75.998 166.01 -51.041 106.991 -61.985 123.05c-21.991 30.993 -173.988 160.998 -224.006 191.99 -73.953 46.029 -185.035 139.006 -203.958 172.965 -29.97 51.041 -37.027 127.039 -15.036 176.954 33.038 77.021 34.982 97.99 23.014 184.012l-11.047 83.977 29.049 24.037c15.957 11.967 38.05 25.981 48.995 29.049 11.047 3.989 54.007 27.003 95.023 51.961 73.953 46.029 75.998 46.029 155.986 43.983 73.953 -2.046 84.999 0 112.003 23.014 16.979 14.013 33.959 42.039 41.017 66.997 10.024 37.027 9.001 51.041 -9.001 103.002 -16.979 48.995 -20.969 87.045 -21.991 203.958 -2.046 140.029 -2.046 144.018 -29.97 181.966 -19.025 27.003 -36.005 38.971 -52.984 38.971a65.463 65.463 0 0 0 -42.039 19.025c-11.967 11.967 -38.05 20.048 -73.032 24.037 -84.999 7.978 -189.024 33.959 -234.95 57.996 -33.038 18.002 -46.949 33.959 -68.02 79.987 -29.049 61.985 -64.951 105.047 -104.025 119.981 -27.003 10.024 -45.006 10.024 -118.038 -1.023m164.987 -78.965c0 -11.047 -15.957 -33.959 -34.982 -52.984 -38.971 -36.005 -42.039 -64.031 -10.024 -82.033 11.047 -6.035 55.03 -34.982 97.99 -64.031l78.044 -52.984 112.003 -11.047c60.962 -6.035 139.006 -11.967 172.965 -12.99s65.974 -5.012 72.009 -9.001c19.025 -11.047 14.013 -34.982 -11.047 -59.019 -46.029 -45.006 -47.972 -51.041 -30.993 -84.999 7.978 -18.002 19.025 -33.959 24.958 -37.027 15.957 -11.047 10.024 -46.029 -12.99 -64.031 -28.026 -24.037 -20.048 -51.961 37.027 -130.005 36.005 -47.972 45.006 -69.043 45.006 -100.956 0 -34.982 -2.966 -39.994 -21.991 -39.994 -14.013 0 -33.959 12.99 -47.972 30.993 -21.991 25.981 -37.027 32.015 -105.047 43.983 -42.96 7.978 -82.033 11.967 -87.045 9.001 -3.989 -2.966 -7.978 -21.991 -7.978 -42.96v-38.05l-106.991 -46.949c-123.05 -52.984 -163.043 -57.996 -163.043 -23.014a92.057 92.057 0 0 1 -15.957 45.006c-14.013 20.048 -23.014 23.014 -66.997 20.048 -46.029 -2.046 -60.042 2.966 -127.039 42.96 -141.973 87.045 -363.012 144.018 -549.99 141.973 -109.037 0 -279.035 -29.97 -318.006 -54.007 -19.025 -11.967 -25.981 -11.047 -51.041 3.989 -42.96 24.958 -86.022 21.991 -109.957 -9.001 -51.041 -64.951 -3.989 -159.975 73.032 -146.985 33.038 5.012 38.971 0 194.036 -158.031l158.952 -163.043 -77.021 -75.998c-42.039 -41.017 -88.989 -94.001 -103.002 -117.015 -38.971 -60.962 -64.951 -59.019 -96.046 10.024 -30.993 68.02 -119.981 153.019 -202.014 194.036 -69.963 36.005 -176.034 63.008 -243.031 63.008 -33.959 0 -47.972 6.035 -70.986 29.97 -72.009 74.975 -168.976 6.955 -135.017 -95.023 11.967 -37.027 7.978 -55.03 -50.018 -240.985 -6.035 -16.979 -10.024 -43.983 -10.024 -60.042s-5.012 -45.006 -10.024 -64.031c-6.035 -19.025 -15.036 -82.033 -20.048 -140.029 -24.037 -251.009 -29.049 -298.981 -38.971 -360.046 -14.013 -82.033 -14.013 -266.045 0 -390.015 5.012 -51.961 14.013 -135.017 19.025 -185.035 11.047 -118.958 27.003 -234.95 45.006 -315.04 7.978 -36.005 15.957 -78.044 19.025 -95.023 7.978 -42.039 33.959 -172.045 45.006 -220.017 11.047 -55.03 72.009 -238.019 82.954 -249.986 3.989 -5.012 7.978 -15.036 7.978 -23.014s6.035 -28.026 14.013 -45.006c6.955 -18.002 23.014 -56.973 34.982 -87.045s25.981 -64.031 29.97 -74.975c5.012 -11.047 16.979 -39.994 25.981 -64.951 29.97 -74.975 55.95 -130.005 65.974 -136.04 5.012 -2.966 9.001 -30.993 9.001 -63.008 0 -69.963 19.025 -94.001 82.954 -100.035 16.979 -2.046 5.012 -43.983 -28.026 -96.046l-36.005 -55.03h-139.006l-50.018 52.984c-55.03 56.973 -55.95 61.985 -36.005 112.003 7.978 19.025 18.002 55.95 21.991 82.033s12.99 60.962 19.025 78.044c6.955 15.957 15.957 54.007 20.048 82.954 6.955 55.95 3.989 69.043 -46.029 180.023 -15.957 33.959 -29.049 70.986 -29.049 81.01 0 11.047 -3.989 21.991 -9.001 24.958s-19.025 38.05 -30.993 78.044c-12.99 39.994 -29.049 87.045 -36.005 105.047 -7.978 16.979 -14.013 38.05 -14.013 46.029s-6.955 28.026 -15.036 42.96c-7.978 15.957 -15.036 41.017 -15.036 55.95s-3.989 29.049 -9.001 32.015 -11.967 23.014 -15.036 42.96c-3.989 20.969 -19.025 84.999 -33.038 142.995s-29.049 136.961 -33.038 175.011c-3.989 38.971 -12.99 99.013 -19.025 135.017 -20.969 127.959 -33.959 497.006 -21.991 614.021 6.035 60.042 11.047 135.017 11.047 164.987 0 63.008 20.969 186.978 51.961 302.97 11.047 42.96 18.002 83.977 15.036 91.034 -2.966 9.001 -25.981 15.957 -55.95 19.025 -56.973 6.035 -91.034 29.049 -91.034 64.031 0 11.967 -5.012 34.982 -11.047 51.041 -32.015 82.954 -38.971 131.028 -24.037 173.988 14.013 39.994 14.013 43.983 -11.047 92.978 -43.983 87.045 -56.973 110.98 -64.031 115.992 -15.036 11.047 -30.993 51.961 -25.981 66.997 5.012 11.967 16.979 14.013 65.974 7.978 57.996 -6.955 60.042 -6.035 105.047 29.97 54.007 45.006 54.007 48.995 -15.957 153.019 -27.003 41.017 -48.995 83.977 -47.972 95.023 0 12.99 18.002 37.027 43.983 59.019 38.971 32.015 52.984 37.027 112.003 42.039 38.05 2.966 118.958 11.047 181.046 18.002 130.005 12.99 121.004 6.955 191.99 136.04 42.039 75.998 46.949 82.033 74.975 79.987 38.05 -3.989 55.03 -36.005 55.03 -109.957 0 -46.029 3.989 -60.042 20.969 -70.986 19.025 -14.013 24.958 -11.967 65.974 15.036 48.995 33.038 55.03 30.993 72.009 -24.037 16.979 -51.041 37.027 -66.997 55.95 -42.039 7.978 10.024 18.002 29.97 20.969 43.983 3.989 14.013 16.979 47.972 29.97 74.975 11.967 28.026 24.958 61.985 28.026 78.044 9.001 38.971 38.971 34.982 84.999 -12.99 32.015 -33.959 43.983 -39.994 77.021 -39.994 45.006 0 64.031 14.013 64.031 46.029 0 23.014 29.049 46.949 72.009 56.973 39.994 10.024 91.955 70.986 97.99 114.969 6.035 47.972 23.014 50.018 105.047 16.979 72.009 -28.026 96.046 -27.003 112.003 7.978 6.035 11.967 23.014 37.027 38.05 55.03l27.003 32.015h135.017c130.005 0 136.04 1.023 164.987 24.958 38.05 32.015 108.014 36.005 108.014 6.035m-539.966 -705.976c158.952 -33.959 364.955 -117.015 364.955 -146.985 0 -6.955 -11.047 -14.013 -24.958 -15.957 -42.96 -3.989 -144.018 -23.014 -169.999 -32.015 -145.041 -47.972 -244.974 -97.99 -328.951 -163.043l-64.031 -50.018 -34.982 38.971c-70.986 78.965 -226.972 236.996 -257.965 261.033 -38.971 29.049 -51.961 60.042 -32.015 78.965 6.955 6.955 46.949 19.025 87.966 24.958s95.023 15.036 119.981 20.048c64.951 11.047 252.953 2.966 339.998 -15.957m437.987 -253.975c15.036 -7.978 28.026 -9.001 41.017 -1.023 41.017 20.969 55.95 12.99 68.02 -37.027 6.035 -27.003 19.025 -78.965 29.049 -117.015l18.002 -68.02 -48.995 -42.96 -48.995 -42.039 18.002 -78.965c10.024 -42.96 20.969 -95.023 24.958 -114.049 6.035 -33.038 46.029 -66.997 230.961 -197.002 95.023 -66.997 226.972 -167.953 235.973 -181.966 6.035 -9.001 20.969 -41.017 33.038 -70.986 12.99 -29.97 37.027 -83.977 52.984 -119.981s33.038 -73.953 37.027 -84.999c6.955 -18.002 32.015 -72.009 88.989 -194.957 11.047 -24.958 29.97 -65.974 39.994 -91.034 16.979 -39.994 39.994 -60.962 166.01 -155.986l145.041 -109.957 142.995 -6.035c78.965 -2.966 163.043 -2.046 185.955 2.966 59.019 10.024 82.033 2.966 82.033 -25.981 0 -11.967 -3.989 -24.958 -9.001 -29.049 -5.012 -2.966 -12.99 -19.025 -15.957 -36.005a511.429 511.429 0 0 0 -27.003 -75.998c-23.014 -51.961 -12.99 -92.978 20.969 -92.978 10.024 0 50.018 -14.013 87.045 -30.993 61.985 -28.026 86.022 -38.05 158.952 -69.043 11.047 -3.989 42.96 -16.979 69.963 -27.003 56.973 -21.991 66.997 -43.983 32.015 -68.02 -20.969 -12.99 -28.026 -14.013 -57.996 -1.023 -70.986 29.97 -199.048 48.995 -288.037 42.96 -128.982 -7.978 -333.042 -83.977 -381.014 -141.973 -16.979 -20.969 -46.949 -19.025 -60.042 3.989 -5.012 11.047 -10.024 42.96 -10.024 70.986 0 47.972 -5.012 69.963 -50.018 215.005 -65.974 212.959 -186.978 403.006 -379.991 594.996 -51.961 52.984 -122.027 115.992 -154.963 140.95 -86.022 64.951 -248.963 160.998 -328.951 194.957 -52.984 21.991 -73.953 38.05 -91.955 65.974 -24.958 39.994 -51.041 57.996 -82.033 57.996 -12.99 0 -30.993 18.002 -52.984 52.984 -46.029 73.032 -279.035 379.991 -309.005 406.995 -2.966 2.966 -16.979 20.969 -32.015 39.994 -14.013 19.025 -36.005 46.029 -48.995 60.042s-51.961 55.03 -86.022 91.955c-34.982 37.027 -63.008 72.009 -63.008 77.021 0 9.001 127.959 87.966 190.047 118.038 91.034 43.983 176.954 73.032 315.04 108.014 43.983 11.047 51.961 10.024 69.963 -5.012 11.047 -10.024 29.97 -23.014 42.96 -29.049m-1335.033 -191.99c127.959 -29.049 208.97 -82.954 294.992 -195.979 29.97 -38.971 32.015 -45.006 25.981 -96.967 -5.012 -45.006 -10.024 -55.95 -24.958 -55.95 -10.024 0 -59.019 28.026 -108.014 60.962 -82.033 55.03 -92.978 60.042 -109.957 47.972a12990.286 12990.286 0 0 1 -248.963 -199.969c-46.029 -38.971 -64.031 -47.972 -109.037 -52.984 -82.033 -10.024 -82.954 -7.978 -50.018 114.049 9.001 29.97 21.991 79.987 29.97 109.957s21.991 79.987 32.015 109.957a1329.714 1329.714 0 0 1 23.014 90.011c6.035 27.003 15.036 38.971 42.96 51.961 19.025 9.001 41.017 23.014 47.972 32.015 14.013 16.979 24.037 15.957 154.042 -15.036m713.954 -86.022c20.969 -27.003 75.998 -92.978 123.05 -148.007a6137.143 6137.143 0 0 0 263.999 -329.974c36.005 -48.995 78.965 -105.047 94.001 -123.05 46.949 -57.996 55.03 -78.965 41.017 -115.992 -9.001 -24.958 -24.037 -38.05 -63.008 -56.973 -141.973 -66.997 -257.965 -163.043 -471.026 -388.993 -83.977 -88.989 -275.046 -328.03 -275.046 -343.987 0 -2.966 -11.967 -24.037 -27.003 -47.972 -43.983 -66.997 -50.018 -78.965 -78.965 -137.983 -15.036 -29.97 -29.97 -56.973 -33.959 -60.042s-19.025 -27.003 -33.959 -55.03a2454.857 2454.857 0 0 1 -34.982 -64.951c-81.01 -145.962 -179 -527.999 -181.046 -700.964 0 -24.958 -6.035 -54.007 -14.013 -64.951 -14.013 -18.002 -15.036 -18.002 -24.037 6.035 -5.012 14.013 -25.981 60.962 -46.949 105.047 -20.048 43.983 -46.029 103.002 -55.95 130.005a2659.429 2659.429 0 0 1 -33.959 82.033c-7.978 16.979 -15.036 38.05 -15.036 46.029 0 9.001 -2.966 18.002 -7.978 20.048 -3.989 2.966 -18.002 38.05 -30.993 78.965a3886.857 3886.857 0 0 1 -60.962 177.977c-6.955 19.025 -15.036 60.962 -18.002 91.955 -2.966 54.007 -2.046 60.042 25.981 87.966 46.029 45.006 56.973 39.994 82.033 -41.017 11.967 -38.971 28.026 -73.032 36.005 -75.998s36.005 0 60.962 6.955c46.029 11.047 73.032 30.993 193.013 139.006 24.958 21.991 55.03 41.017 65.974 41.017 16.979 0 30.993 18.002 64.031 87.966 23.014 47.972 52.984 100.956 65.974 118.958 12.99 16.979 24.037 33.959 24.037 37.027 0 7.978 60.042 96.046 121.004 176.034 97.99 130.005 261.954 300.004 288.957 300.004 5.012 0 11.967 10.024 15.036 20.969 6.035 16.979 0 27.003 -24.037 46.029 -34.982 27.003 -60.962 79.987 -60.962 123.05 0 15.036 -6.035 50.018 -14.013 75.998 -15.036 51.041 -32.015 132.051 -46.029 218.994 -21.991 127.039 -28.026 133.994 -154.963 179 -72.009 25.981 -84.999 55.03 -37.027 79.987 36.005 18.002 43.983 38.05 36.005 81.01 -3.989 24.958 0 38.971 21.991 65.974 38.971 47.972 167.033 179 176.034 179 2.966 0 24.037 -20.969 45.006 -46.949m-534.954 -302.97c24.958 -11.047 69.043 -21.991 100.035 -25.981 51.961 -6.035 59.019 -11.047 140.029 -87.966 55.03 -51.961 92.978 -97.99 106.991 -127.959 25.981 -59.019 51.041 -159.975 51.041 -213.982 0 -23.014 6.035 -46.949 14.013 -52.984 7.978 -6.955 15.957 -28.026 19.025 -48.995a920.571 920.571 0 0 1 16.979 -84.999c6.955 -27.003 9.001 -57.996 6.035 -69.963s-42.96 -61.985 -90.011 -110.98c-46.949 -50.018 -92.978 -105.047 -103.002 -123.05s-20.969 -33.038 -25.981 -33.038c-15.957 0 -46.029 -43.983 -46.949 -66.997 0 -12.99 -6.035 -23.014 -12.99 -23.014 -7.978 0 -21.991 -19.025 -33.038 -42.039 -10.024 -24.037 -30.993 -57.996 -46.029 -75.998s-28.026 -41.017 -28.026 -51.041 -21.991 -38.971 -50.018 -64.951c-27.003 -25.981 -50.018 -54.007 -50.018 -61.985s-3.989 -14.013 -9.001 -14.013 -50.018 -27.003 -100.035 -60.042c-82.954 -55.03 -131.028 -73.032 -131.028 -51.961 0 14.013 -108.014 64.951 -136.961 64.951 -29.97 0 -42.96 11.967 -72.009 66.997 -16.979 30.993 -25.981 84.999 -36.005 212.959 -2.046 23.014 -7.978 84.999 -14.013 136.961 -14.013 124.993 -14.013 566.97 0 667.005 15.957 114.969 32.015 136.04 123.97 163.964 55.03 15.957 146.985 70.986 195.979 115.992 41.017 38.05 119.981 81.01 149.951 82.033 9.001 1.023 37.027 -7.978 60.962 -19.025m1112.971 -499.973c2.966 -5.012 15.036 -10.024 24.958 -10.024 11.047 0 25.981 -10.024 34.982 -21.991 48.995 -69.043 315.04 -565.026 315.04 -588.961 0 -5.012 -15.957 -19.025 -34.982 -29.97 -50.018 -29.97 -86.022 -96.046 -91.955 -168.976 -6.955 -70.986 -24.037 -78.044 -63.008 -24.958 -14.013 19.025 -69.963 77.021 -124.993 127.959 -55.03 51.961 -140.029 132.971 -190.047 181.046 -88.989 84.999 -90.011 84.999 -141.973 86.022 -51.961 0 -52.984 1.023 -73.032 42.039 -11.047 23.014 -20.048 47.972 -20.048 55.03s-12.99 28.026 -29.97 46.029c-36.005 41.017 -38.05 64.031 -6.955 75.998 11.967 5.012 45.006 25.981 73.953 47.972 224.006 163.964 310.028 212.038 328.03 182.989m149.03 1.023c2.966 -5.012 46.949 -32.015 97.99 -60.042 74.975 -42.039 230.041 -144.018 283.025 -188.001 221.96 -181.046 396.971 -435.021 470.003 -682.962 9.001 -29.97 20.969 -65.974 27.003 -79.987s14.013 -46.949 19.025 -74.975c3.989 -27.003 11.047 -61.985 14.013 -77.021 5.012 -19.025 1.023 -34.982 -14.013 -56.973a125.811 125.811 0 0 1 -20.969 -64.951c0 -27.003 -14.013 -55.03 -60.962 -123.05a3273.143 3273.143 0 0 1 -126.016 -188.001c-6.955 -11.047 -23.014 -41.017 -36.005 -66.997s-28.026 -52.984 -33.959 -60.042c-5.012 -6.955 -18.002 -33.038 -28.026 -57.996s-24.037 -51.961 -30.993 -60.042c-6.035 -7.978 -14.013 -25.981 -16.979 -39.994s-15.036 -50.018 -27.003 -79.987 -24.958 -68.02 -27.003 -84.999c-2.966 -15.957 -10.024 -36.005 -15.957 -42.96s-14.013 -32.015 -18.002 -55.03c-7.978 -45.006 -21.991 -101.979 -45.006 -181.046a347.771 347.771 0 0 1 -14.013 -82.954c0 -28.026 -14.013 -96.046 -36.005 -181.046 -2.046 -6.955 -11.967 -15.036 -20.969 -19.025 -47.972 -16.979 -73.032 -43.983 -73.032 -78.965 0 -69.043 74.975 -106.991 128.982 -64.951 20.048 15.036 23.014 25.981 23.014 69.043 -2.046 61.985 15.036 70.986 78.965 45.006 70.986 -28.026 167.033 -23.014 274.023 15.036 50.018 18.002 99.013 37.027 109.957 43.983 12.99 7.978 57.996 11.047 127.959 10.024 97.99 -2.966 113.026 -1.023 162.021 23.014 100.035 46.949 123.05 21.991 64.031 -69.963a920.571 920.571 0 0 1 -39.994 -69.043c-5.012 -11.967 -20.969 -38.971 -33.959 -60.962 -24.958 -38.05 -24.958 -45.006 -20.048 -149.951 2.046 -60.042 9.001 -126.016 15.036 -145.041 5.012 -19.025 10.024 -60.042 10.024 -91.034 0 -50.018 -2.966 -56.973 -29.97 -77.021 -29.049 -21.991 -29.97 -25.981 -29.97 -96.967 0 -86.022 -11.967 -96.967 -77.021 -69.963a511.429 511.429 0 0 1 -82.954 25.981c-29.97 6.955 -74.975 33.038 -136.961 79.987 -51.041 38.05 -109.037 75.998 -127.959 83.977s-51.041 21.991 -69.963 29.97c-20.048 7.978 -43.983 15.036 -55.03 15.036 -10.024 0 -20.969 3.989 -24.958 9.001 -2.966 5.012 -19.025 11.967 -36.005 15.957s-42.039 12.99 -56.973 20.969 -37.027 14.013 -48.995 14.013c-19.025 0 -52.984 29.049 -118.958 100.956 -9.001 10.024 -29.97 19.025 -46.949 21.991 -151.997 24.037 -164.987 29.049 -217.971 82.954l-51.961 51.961 6.955 64.951c6.035 52.984 12.99 70.986 41.017 103.002 18.002 21.991 42.039 48.995 51.961 61.985 20.048 25.981 14.013 29.049 73.032 -36.005 25.981 -28.026 32.015 -25.981 61.985 18.002a94.103 94.103 0 0 0 60.962 42.96c47.972 11.967 60.042 33.959 69.043 127.039 7.978 84.999 29.97 200.991 46.949 243.031 6.035 15.957 11.047 41.017 11.047 55.95s3.989 30.993 9.001 37.027c3.989 5.012 18.002 42.96 30.993 83.977 20.969 73.032 29.049 92.978 64.031 172.965 9.001 20.969 15.957 43.983 15.957 51.041a35.8 35.8 0 0 0 14.013 24.958 85.92 85.92 0 0 1 20.969 38.05c2.966 14.013 16.979 42.039 30.993 61.985 12.99 19.025 24.037 41.017 24.037 47.972s20.048 42.039 45.006 78.965c24.958 36.005 45.006 68.02 45.006 72.009s20.048 29.97 45.006 59.019c36.005 39.994 45.006 59.019 45.006 87.045 0 52.984 -24.958 105.968 -48.995 105.968 -11.047 0 -21.991 3.989 -25.981 9.001 -2.966 5.012 -19.025 11.967 -34.982 15.957s-41.017 19.025 -54.007 33.038c-109.957 122.027 -110.98 123.05 -70.986 160.998 33.038 30.993 64.951 105.047 64.951 149.03 0 20.048 -7.978 56.973 -16.979 82.033 -39.994 108.014 -131.028 173.988 -240.985 175.011h-63.008l-20.969 50.018c-46.949 112.003 -145.041 301.027 -199.048 382.958 -15.957 24.037 -29.049 45.006 -29.049 47.972s-15.957 25.981 -34.982 51.041 -34.982 51.961 -34.982 59.019c0 15.036 36.005 19.025 43.983 5.012m403.006 -669.971c75.998 -34.982 132.971 -114.969 132.971 -185.955 0 -42.039 -39.994 -113.026 -87.966 -154.963 -42.96 -38.05 -47.972 -39.994 -114.049 -39.994s-69.963 1.023 -113.026 41.017c-24.958 23.014 -52.984 56.973 -61.985 75.998 -42.96 91.955 12.99 221.96 117.015 266.045 46.949 20.969 77.021 20.048 127.039 -2.046m-1522.011 -396.05c29.97 -29.049 30.993 -42.039 5.012 -69.963 -20.048 -20.969 -20.048 -21.991 -2.046 -46.029 10.024 -12.99 27.003 -42.96 38.971 -65.974l20.048 -42.039 -32.015 -92.978c-18.002 -51.041 -36.005 -100.956 -39.994 -110.98s-2.966 -29.049 3.989 -42.96c7.978 -19.025 7.978 -38.05 -2.966 -82.033 -33.038 -130.005 -42.96 -188.001 -69.043 -367.001 -10.024 -68.02 -15.036 -79.987 -32.015 -82.954a68.531 68.531 0 0 0 -39.994 11.967c-74.975 57.996 -70.986 51.041 -56.973 87.966 16.979 48.995 15.036 63.008 -12.99 94.001 -18.002 20.048 -24.037 34.982 -20.969 52.984 2.966 14.013 7.978 46.029 11.047 70.986 14.013 100.956 46.029 254.998 77.021 364.955 32.015 113.026 36.005 124.993 69.043 225.029 16.979 51.961 32.015 100.956 34.982 108.014 5.012 19.025 21.991 15.036 48.995 -12.99m3035.022 -39.994c6.955 -7.978 18.002 -15.036 24.037 -15.036 6.955 0 16.979 -5.012 23.014 -11.047s64.031 -34.982 128.982 -64.031c112.003 -51.041 119.981 -55.95 172.965 -122.027 30.993 -38.971 73.953 -91.034 95.023 -117.015 38.05 -45.006 38.971 -47.972 27.003 -84.999 -6.035 -20.969 -11.047 -77.021 -11.047 -124.993v-86.022h-34.982c-27.003 0 -38.05 6.035 -51.041 28.026 -73.032 118.958 -142.995 212.959 -168.976 225.949 -15.957 9.001 -73.032 32.015 -124.993 51.961s-114.049 46.949 -137.983 60.042c-24.037 11.967 -48.995 20.969 -56.973 18.002 -14.013 -6.035 -34.982 -55.03 -34.982 -83.977 0 -10.024 -6.955 -30.993 -15.036 -46.029 -7.978 -15.957 -15.036 -36.005 -15.036 -45.006a43.983 43.983 0 0 0 -9.001 -24.958c-5.012 -5.012 -14.013 -24.958 -19.025 -43.983a1534.286 1534.286 0 0 0 -32.015 -90.011c-29.97 -73.953 -33.959 -104.025 -18.002 -117.015 6.955 -6.035 50.018 -29.97 95.023 -52.984 92.978 -46.029 117.015 -65.974 109.037 -87.045 -2.966 -7.978 2.966 -57.996 14.013 -109.957 29.97 -144.018 27.003 -155.986 -42.039 -172.965a2250.286 2250.286 0 0 1 -47.972 -11.047c-9.001 -2.966 -18.002 7.978 -24.958 28.026a163.657 163.657 0 0 1 -36.005 55.03c-18.002 16.979 -29.049 42.039 -38.05 87.966a664.857 664.857 0 0 1 -23.014 95.023c-23.014 63.008 -113.026 242.008 -145.041 289.98 -92.978 136.04 -261.954 285.991 -390.015 347.976 -32.015 15.957 -64.951 32.015 -73.032 36.005s-15.957 20.048 -18.002 33.959c-2.966 24.037 3.989 29.97 60.042 57.996 146.985 72.009 294.992 105.047 423.974 95.023 131.028 -10.024 184.012 -24.037 194.036 -51.961 24.958 -65.974 104.025 -87.966 136.04 -38.05 10.024 14.013 16.979 39.994 16.979 56.973 0 43.983 24.037 60.042 46.949 32.015m-828.003 -261.954c114.969 -73.032 217.05 -154.042 284.047 -225.029 65.974 -70.986 184.012 -240.985 184.012 -263.999 0 -6.955 7.978 -27.003 16.979 -46.029 29.049 -57.996 32.015 -64.951 38.971 -104.025 3.989 -21.991 12.99 -51.041 20.048 -65.974 18.002 -34.982 18.002 -65.974 -1.023 -83.977 -38.05 -38.05 -29.97 -105.968 15.036 -128.982 33.959 -18.002 38.971 -46.029 15.036 -91.034 -7.978 -15.957 -15.036 -38.971 -15.036 -51.961 0 -33.038 -24.037 -75.998 -91.034 -162.021 -32.015 -41.017 -68.02 -87.045 -78.965 -103.002 -20.048 -24.958 -25.981 -27.003 -73.032 -21.991 -29.049 2.046 -59.019 3.989 -68.02 5.012 -25.981 0 -29.97 24.958 -12.99 77.021 15.036 47.972 32.015 158.031 41.017 266.045 3.989 51.961 7.978 60.042 36.005 78.044 18.002 10.024 39.994 19.025 50.018 19.025s21.991 11.047 27.003 25.981c12.99 33.038 12.99 91.034 0 99.013 -5.012 2.966 -10.024 12.99 -10.024 20.969 0 6.955 -12.99 42.96 -29.97 77.021 -15.957 34.982 -29.97 66.997 -29.97 70.986 0 7.978 -34.982 91.034 -48.995 115.992a184.114 184.114 0 0 0 -15.036 47.972c-3.989 16.979 -11.967 33.959 -16.979 37.027a28.64 28.64 0 0 0 -9.001 20.969c0 25.981 -38.971 100.956 -55.95 108.014 -7.978 2.966 -36.005 6.035 -60.042 6.035 -24.958 0 -59.019 6.955 -77.021 15.957 -41.017 21.991 -145.041 92.978 -153.019 105.047 -2.966 5.012 -10.024 38.971 -15.036 74.975 -11.967 87.966 -3.989 101.979 64.031 113.026 5.012 0 36.005 -15.957 69.043 -36.005m-199.969 -140.029a613.714 613.714 0 0 0 41.017 -63.008c16.979 -29.049 45.006 -55.95 77.021 -74.975 27.003 -15.957 50.018 -33.038 50.018 -37.027 0 -5.012 6.955 -7.978 15.036 -7.978 9.001 0 27.003 -6.955 41.017 -15.957 14.013 -10.024 38.971 -16.979 56.973 -18.002 28.026 -1.023 36.005 -7.978 59.019 -51.041 29.049 -52.984 30.993 -56.973 55.03 -119.981 7.978 -21.991 19.025 -46.949 24.037 -55.03 15.957 -25.981 27.003 -54.007 38.971 -100.035 6.955 -24.958 16.979 -55.03 21.991 -66.997 11.967 -24.958 3.989 -75.998 -20.048 -118.958 -61.985 -113.026 -72.009 -136.961 -72.009 -163.043s-6.035 -33.038 -43.983 -51.041c-24.958 -11.047 -57.996 -20.048 -74.975 -20.048 -15.957 0 -42.039 -5.012 -57.996 -11.047 -15.036 -6.035 -69.963 -12.99 -122.027 -15.036 -114.049 -3.989 -199.969 -20.048 -225.029 -42.96 -10.024 -9.001 -37.027 -16.979 -60.042 -19.025 -136.961 -7.978 -173.988 -6.955 -203.037 5.012 -18.002 6.955 -38.971 10.024 -47.972 6.955 -12.99 -5.012 -14.013 -2.046 -5.012 21.991 6.035 15.036 10.024 39.994 9.001 54.007 -3.989 46.029 12.99 172.045 27.003 199.048 7.978 14.013 14.013 34.982 14.013 46.949 0 11.047 3.989 24.037 9.001 29.97 6.035 5.012 12.99 36.005 15.957 69.043 3.989 36.005 11.967 64.951 21.991 72.009 15.957 12.99 103.002 233.007 103.002 262.977 0 10.024 7.978 20.048 18.002 21.991 11.047 2.966 21.991 23.014 30.993 56.973 6.955 29.049 19.025 55.03 27.003 57.996 6.955 2.046 23.014 24.037 33.959 47.972 15.036 32.015 25.981 42.039 37.027 38.05 11.967 -5.012 14.013 -1.023 7.978 15.036 -5.012 16.979 -1.023 24.037 18.002 30.993 14.013 6.035 28.026 15.036 32.015 20.048 9.001 15.957 29.97 12.99 46.949 -6.035"/><path d="M6898.967 13001.026c-36.005 -36.005 -38.971 -42.96 -38.971 -94.001 0 -48.995 3.989 -60.962 30.993 -91.955 60.042 -68.02 148.007 -68.02 208.97 1.023 25.981 29.97 29.97 42.96 29.97 91.034 0 51.041 -2.966 57.996 -38.971 94.001s-42.96 38.971 -96.046 38.971 -60.042 -2.966 -96.046 -38.971m149.03 -24.037c6.955 -6.035 20.048 -24.037 28.026 -39.994 41.017 -78.044 -55.95 -159.975 -131.028 -110.98 -37.027 24.037 -48.995 69.963 -28.026 113.026 28.026 56.973 87.966 73.953 131.028 38.05"/><path d="M4530.95 9810.018c-41.017 -6.035 -60.042 -15.036 -82.033 -39.994 -28.026 -29.97 -29.049 -34.982 -28.026 -123.05 1.023 -51.041 -2.966 -112.003 -9.001 -136.961s-11.047 -123.97 -11.047 -220.017c-1.023 -208.97 11.047 -270.034 60.962 -311.971l32.015 -28.026h230.961c212.959 0 231.984 2.046 262.977 20.048 45.006 28.026 65.974 78.965 51.961 127.959 -10.024 38.05 -59.019 94.001 -91.955 105.047 -25.981 9.001 -21.991 24.037 10.024 41.017 39.994 20.048 78.044 73.953 84.999 118.038 3.989 28.026 0 45.006 -16.979 69.963 -27.003 41.017 -60.042 56.973 -127.959 64.031 -61.985 6.955 -109.037 24.958 -105.047 38.971 2.046 5.012 37.027 15.036 78.044 20.969 100.956 14.013 153.019 45.006 188.001 113.026 11.967 20.969 10.024 28.026 -15.036 64.031 -55.95 78.044 -60.042 78.965 -270.955 82.954 -103.002 1.023 -212.038 -1.023 -242.008 -6.035m476.958 -105.968c5.012 -69.963 0 -72.009 -211.015 -65.974l-184.012 5.012 -6.955 -132.051c-3.989 -72.009 -3.989 -136.04 -1.023 -141.973 3.989 -5.012 20.969 2.966 39.994 19.025 32.015 29.049 34.982 29.049 181.046 33.959 82.033 2.966 157.009 1.023 167.033 -3.989 20.048 -10.024 24.037 -82.033 5.012 -95.023 -6.955 -3.989 -97.99 -7.978 -203.037 -7.978h-190.047l-2.966 -91.034c-2.046 -64.951 1.023 -94.001 10.024 -100.035 7.978 -6.035 82.033 -6.955 188.001 -2.966 100.956 3.989 181.966 2.966 193.013 -2.966 18.002 -9.001 24.037 -72.009 9.001 -96.046 -6.955 -10.024 -64.951 -11.967 -266.966 -10.024l-258.987 2.966 1.023 252.032c1.023 139.006 3.989 261.033 6.955 270.955 3.989 10.024 20.048 28.026 36.005 39.994 42.039 30.993 39.994 61.985 -2.966 61.985 -18.002 0 -38.05 5.012 -45.006 11.967 -15.036 15.036 -15.957 69.963 -1.023 84.999 6.955 6.955 95.023 10.024 271.978 9.001l261.954 -1.023zm-256.021 -181.966c-19.025 -6.035 -43.983 6.035 -37.027 18.002 3.989 6.955 14.013 6.035 28.026 -2.046 14.013 -6.955 16.979 -12.99 9.001 -15.957"/><path d="M5246.95 9810.018c-32.015 -3.989 -59.019 -9.001 -60.042 -11.047 -2.046 -2.046 -19.025 -23.014 -39.994 -46.949 -20.048 -23.014 -37.027 -50.018 -37.027 -60.962 0 -10.024 15.957 -38.971 34.982 -64.031 27.003 -34.982 46.029 -48.995 87.045 -61.985 29.049 -10.024 57.996 -21.991 63.008 -27.003 6.035 -5.012 11.967 -106.991 15.036 -240.985 6.035 -248.963 10.024 -265.022 63.008 -315.961 38.05 -34.982 124.993 -36.005 162.021 -1.023 50.018 46.029 55.03 72.009 55.03 301.027 0 212.038 0 212.038 25.981 245.997 14.013 18.002 33.959 33.038 43.983 33.038 29.97 0 87.966 38.971 109.957 73.953 33.038 54.007 27.003 87.045 -24.037 133.994 -38.971 36.005 -48.995 39.994 -112.003 45.006 -97.99 6.955 -318.006 6.035 -387.049 -2.966m481.05 -119.981 -2.966 -55.03h-209.993l1.023 -45.006c1.023 -59.019 5.012 -551.013 3.989 -567.993 0 -10.024 -18.002 -11.967 -66.997 -10.024l-68.02 2.966 1.023 45.006c0 24.958 2.046 163.964 3.989 310.028l2.966 265.022h-217.971l-2.966 43.983c-2.046 24.037 -1.023 48.995 1.023 55.03 2.966 7.978 79.987 11.967 280.979 11.047h276.99z"/><path d="M6034.959 9811.041c-60.962 -6.955 -127.959 -56.973 -155.986 -114.969 -24.958 -52.984 -27.003 -238.019 -2.966 -311.971 16.979 -51.041 100.956 -144.018 131.028 -144.018 24.037 0 11.047 -15.957 -42.039 -52.984 -91.034 -61.985 -106.991 -131.028 -45.006 -199.969l28.026 -32.015 216.027 -2.966c244.974 -3.989 249.986 -2.046 311.971 73.953l38.05 46.029 1.023 141.973c0 136.04 -1.023 142.995 -27.003 188.001 -29.049 47.972 -81.01 87.966 -115.992 87.966 -11.047 0 -23.014 3.989 -27.003 9.001 -2.966 5.012 -20.048 6.955 -38.971 3.989s-36.005 -1.023 -39.994 6.035c-3.989 6.035 -15.957 11.047 -27.003 11.047 -11.967 0 -19.025 5.012 -16.979 12.99 2.966 7.978 33.959 14.013 88.989 16.979 123.97 7.978 181.046 47.972 194.957 136.04 6.035 38.05 2.966 45.006 -27.003 78.965 -30.993 32.015 -42.039 37.027 -104.025 45.006 -77.021 10.024 -261.954 11.047 -339.998 1.023m418.962 -77.021c2.966 -9.001 6.035 -28.026 6.035 -43.983 0 -60.042 6.035 -57.996 -202.014 -51.961 -128.982 2.966 -191.99 2.046 -197.002 -6.035s-6.955 -169.999 -2.046 -203.958c1.023 -5.012 75.998 -7.978 167.033 -7.978h166.01l29.049 -29.049 29.049 -29.049v-131.028c0 -70.986 -3.989 -140.95 -9.001 -154.042s-24.958 -33.959 -43.983 -46.029c-33.038 -20.048 -45.006 -20.969 -253.975 -19.025l-217.971 2.966 -2.966 51.041c-2.046 34.982 1.023 52.984 10.024 55.95 6.955 2.966 94.001 2.046 191.99 -1.023 122.027 -3.989 182.989 -2.966 190.047 5.012 6.035 6.035 11.047 48.995 11.047 100.035l-1.023 88.989h-158.952c-145.041 0 -162.021 2.046 -182.989 20.048 -43.983 38.05 -51.961 65.974 -51.961 194.957 0 131.028 5.012 149.951 51.961 193.013l30.993 27.003h217.05c189.024 0 218.994 -2.046 224.006 -15.957"/><path d="M7846.03 9812.985c-41.017 -5.012 -97.99 -36.005 -132.051 -73.953 -34.982 -38.971 -43.983 -114.049 -43.983 -361.989 0 -269.011 6.035 -302.05 66.997 -373.036l42.96 -48.995 263.999 -2.966 262.977 -2.966 51.041 47.972c78.044 73.953 84.999 113.026 79.987 414.973 -5.012 274.023 -6.035 276.99 -78.965 348.999 -46.029 45.006 -48.995 46.029 -123.97 51.961 -79.987 6.955 -319.95 6.955 -388.993 0m450.978 -78.965a347.771 347.771 0 0 0 42.96 -36.005c19.025 -20.969 20.048 -33.038 20.048 -309.005 0 -182.989 -3.989 -296.015 -11.047 -311.051a132.971 132.971 0 0 0 -37.027 -42.96c-24.958 -18.002 -45.006 -20.048 -247.02 -23.014 -119.981 -2.046 -227.995 -1.023 -239.962 2.046 -11.047 2.966 -32.015 16.979 -46.949 30.993l-28.026 25.981v309.005c0 307.982 0 309.005 23.014 330.997 11.967 11.047 30.993 24.037 42.039 29.049 11.047 3.989 118.958 6.955 239.962 7.978 171.022 0 225.029 -2.966 242.008 -14.013"/><path d="M7869.965 9629.995c-1.023 -5.012 -1.023 -118.038 -1.023 -249.986s0 -243.951 1.023 -249.986c0 -11.967 360.046 -14.013 360.966 -2.046 0 3.989 0 119.981 1.023 257.044l1.023 249.986 -181.966 2.966c-118.038 2.046 -181.046 -1.023 -181.046 -7.978m234.95 -86.022c29.97 -11.967 42.96 -55.95 42.96 -145.962 0 -47.972 -5.012 -109.037 -11.967 -135.017 -11.047 -41.017 -16.979 -48.995 -42.039 -54.007 -60.962 -14.013 -84.999 -9.001 -113.026 19.025 -27.003 27.003 -27.003 29.049 -24.958 148.007 2.046 149.03 6.035 162.021 46.949 167.033 56.973 6.955 84.999 6.955 101.979 1.023"/><path d="M8789.002 9811.041c-64.951 -6.955 -114.969 -39.994 -157.009 -104.025 -25.981 -38.971 -27.003 -46.029 -27.003 -171.022 0 -121.004 2.046 -133.994 24.037 -171.022 34.982 -56.973 69.963 -94.001 114.049 -115.992 32.015 -16.979 36.005 -23.014 27.003 -34.982a51.143 51.143 0 0 0 -33.959 -14.013c-25.981 -1.023 -42.039 -12.99 -82.954 -66.997 -42.96 -54.007 -42.039 -87.045 2.046 -137.983l33.959 -39.994 230.041 -2.966 230.041 -2.966 41.017 42.039c23.014 24.037 48.995 56.973 56.973 73.032 21.991 42.039 29.97 239.042 12.99 292.026 -15.036 46.029 -91.955 122.027 -132.051 131.028 -15.957 2.966 -28.026 11.047 -28.026 18.002 0 9.001 -11.047 11.967 -37.027 7.978 -46.029 -6.035 -88.989 19.025 -63.008 37.027 7.978 5.012 38.05 6.955 66.997 2.966 38.05 -3.989 56.973 -2.046 73.953 11.047 12.99 9.001 30.993 15.957 39.994 15.957 24.037 0 78.965 78.044 78.965 110.98 0 16.979 -14.013 42.039 -38.971 69.963 -37.027 42.039 -39.994 42.96 -117.015 50.018 -91.955 9.001 -234.95 9.001 -315.04 0m415.996 -121.004v-55.03h-400.039v-209.993l175.011 -6.035c96.046 -2.966 176.034 -6.035 176.954 -6.955 0 -1.023 10.024 -18.002 21.991 -38.05 18.002 -29.97 20.969 -51.041 20.969 -153.019 0 -105.968 -2.046 -121.004 -23.014 -151.997 -38.05 -56.973 -50.018 -59.019 -287.014 -55.95l-215.005 2.046 -2.966 52.984c-2.046 37.027 1.023 51.961 10.024 52.984 6.955 1.023 96.967 1.023 200.991 -1.023 151.997 -2.046 186.978 0 188.001 11.047 0 7.978 1.023 51.961 2.046 99.013l2.046 84.999h-163.964l-163.043 1.023 -33.959 37.027 -33.959 37.027v141.973c1.023 153.019 3.989 163.964 55.95 198.025 21.991 15.036 54.007 16.979 247.02 15.957l221.96 -1.023z"/><path d="M9459.997 9810.018c-60.962 -12.99 -135.017 -87.966 -124.993 -127.039 14.013 -55.95 73.953 -108.014 158.031 -136.961 29.97 -10.024 36.005 -48.995 38.05 -233.007 2.046 -221.039 10.024 -266.045 54.007 -315.961 30.993 -36.005 37.027 -38.971 90.011 -38.971 50.018 -1.023 60.042 2.966 90.011 32.015 46.949 46.029 55.03 90.011 55.03 316.983 0 227.995 1.023 231.984 81.01 257.965 37.027 12.99 57.996 27.003 79.987 57.996 15.957 21.991 29.049 48.995 29.049 60.042 0 33.038 -48.995 106.991 -78.044 118.958 -34.982 14.013 -413.03 20.048 -472.049 7.978m498.029 -118.038c3.989 -64.951 -1.023 -66.997 -114.049 -55.03 -46.029 5.012 -88.989 6.035 -95.023 2.046 -7.978 -3.989 -10.024 -101.979 -7.978 -315.04l3.989 -309.005 -68.02 -2.966c-48.995 -2.046 -66.997 0 -66.997 10.024 -1.023 12.99 2.966 449.034 3.989 557.969l1.023 55.03h-100.035c-55.03 0 -105.968 3.989 -112.003 7.978 -11.967 7.978 -19.025 87.966 -9.001 97.99 2.966 2.966 130.005 5.012 283.025 3.989h278.013z"/><path d="M3716.04 9789.05a276.171 276.171 0 0 1 -52.984 -61.985l-24.958 -39.994 1.023 -303.993c2.046 -284.968 2.966 -306.039 21.991 -346.033 38.971 -79.987 45.006 -82.033 293.969 -84.999 133.994 -2.046 234.03 1.023 254.998 6.955 54.007 15.957 79.987 57.996 90.011 148.007 6.955 69.043 6.035 79.987 -11.047 104.025 -63.008 88.989 -133.994 103.002 -221.96 45.006 -38.971 -25.981 -63.008 -34.982 -91.955 -33.959 -47.972 0 -43.983 -16.979 -48.995 222.983 -2.046 94.001 -3.989 188.001 -5.012 211.015 -2.966 112.003 -128.982 193.013 -204.981 132.971m132.051 -47.972c11.047 -6.035 11.047 -23.014 2.966 -84.999 -6.035 -42.96 -11.047 -181.046 -11.047 -306.959v-229.018h258.987l2.966 57.996 2.966 56.973h130.005l1.023 -108.014c0 -100.956 -1.023 -108.014 -20.048 -113.026 -11.967 -2.046 -128.982 -2.966 -260.01 -2.046l-239.042 2.966 -1.023 368.024 -1.023 367.001h60.042c33.038 0 65.974 -3.989 73.032 -9.001"/><path d="M6767.018 9780.969c-59.019 -52.984 -61.985 -70.986 -61.985 -410.984 0 -332.019 0 -333.963 60.042 -390.015 21.991 -20.969 36.005 -24.958 81.01 -24.037 46.949 0 59.019 3.989 83.977 29.97 29.97 29.97 60.042 118.958 60.042 179 0 42.96 18.002 61.985 64.951 69.043 86.022 11.967 132.971 -29.049 135.017 -117.015 0 -48.995 20.969 -96.967 55.95 -132.051 24.958 -24.958 37.027 -29.049 81.01 -29.049s56.973 3.989 82.033 28.026c29.049 28.026 38.05 46.029 57.996 115.992 6.035 20.048 11.047 153.019 11.047 305.016 1.023 302.97 0 307.982 -69.963 370.99 -37.027 33.038 -45.006 36.005 -84.999 30.993 -33.038 -2.966 -54.007 -12.99 -78.965 -38.05 -38.971 -38.05 -54.007 -75.998 -57.996 -150.974 -2.046 -29.97 -11.047 -69.043 -20.048 -86.022 -16.979 -32.015 -18.002 -33.038 -82.033 -29.97 -36.005 1.023 -72.009 6.955 -78.965 12.99 -16.979 12.99 -29.049 70.986 -15.957 78.965 11.047 6.955 3.989 63.008 -9.001 81.01a245.486 245.486 0 0 0 -19.025 45.006c-15.957 46.029 -61.985 81.01 -114.969 87.045 -37.027 5.012 -46.949 1.023 -78.965 -25.981m146.985 -65.974c-1.023 -15.957 -5.012 -103.002 -9.001 -191.99 -7.978 -181.046 -3.989 -191.99 47.972 -132.971l27.003 29.97h289.98v108.014c-1.023 59.019 -5.012 127.039 -10.024 151.997 -11.047 60.962 -2.046 69.963 75.998 69.963h64.031v-740.037h-64.951c-42.96 0 -66.997 3.989 -69.963 12.99 -2.966 6.035 -2.046 72.009 2.966 145.041 3.989 73.953 5.012 137.983 1.023 142.995 -2.966 6.035 -79.987 7.978 -185.035 6.955l-179 -2.966v-60.042c0 -33.038 2.966 -100.035 5.012 -149.951l5.012 -90.011 -48.995 -2.966c-100.035 -6.035 -91.034 -42.96 -88.989 369.967 1.023 199.969 2.046 364.035 2.966 365.978 0 2.046 29.97 2.046 68.02 0l66.997 -2.966z"/><path d="M7058.021 8658.997c-81.01 -12.99 -148.007 -79.987 -148.007 -146.985 0 -51.041 11.047 -79.987 43.983 -114.969 29.97 -33.038 28.026 -51.041 -10.024 -96.967 -42.039 -48.995 -56.973 -194.036 -28.026 -256.021 29.97 -64.031 61.985 -70.986 270.034 -64.951 163.043 5.012 184.012 7.978 203.958 25.981 50.018 45.006 64.951 118.958 33.038 164.987a613.714 613.714 0 0 0 -34.982 59.019c-16.979 32.015 -15.957 34.982 1.023 60.042 29.049 42.039 41.017 90.011 41.017 166.01 0 87.045 -20.048 123.97 -94.001 169.999 -42.96 25.981 -60.042 29.97 -145.962 34.982 -54.007 2.966 -114.049 2.046 -132.051 -1.023m287.014 -105.047c21.991 -24.037 24.958 -36.005 24.958 -100.035 0 -39.994 -5.012 -83.977 -11.047 -96.967 -10.024 -23.014 -106.991 -73.953 -266.045 -141.973 -43.983 -18.002 -56.973 -36.005 -47.972 -64.951 7.978 -25.981 18.002 -27.003 131.028 -21.991l101.979 3.989 5.012 28.026c6.035 29.97 42.96 46.029 78.044 34.982 18.002 -6.035 20.048 -15.036 16.979 -82.954l-2.966 -77.021h-203.037c-176.954 0 -204.981 2.046 -212.959 15.957 -10.024 19.025 0 155.986 12.99 181.966 11.967 24.037 65.974 55.95 172.965 101.979 133.994 57.996 136.961 60.962 132.971 109.037l-2.966 41.017h-109.957c-106.991 0 -109.957 -1.023 -113.026 -23.014 -6.035 -43.983 -95.023 -55.95 -104.025 -14.013 -6.955 29.97 9.001 82.954 33.038 108.014 21.991 23.014 27.003 24.037 181.046 24.037h158.952z"/><path d="M8588.011 8658.997c-45.006 -6.955 -96.967 -39.994 -126.016 -78.044 -42.039 -56.973 -23.014 -158.031 34.982 -194.036 20.048 -11.967 15.957 -30.993 -20.048 -82.954 -45.006 -66.997 -60.042 -122.027 -51.041 -191.99 14.013 -118.038 46.949 -136.04 238.019 -132.971 101.979 2.046 140.95 -1.023 146.985 -10.024 5.012 -9.001 11.047 -10.024 20.969 -2.046 6.955 6.035 29.049 15.957 48.995 21.991s46.949 23.014 60.042 37.027c46.029 50.018 24.037 176.954 -38.971 217.05 -9.001 6.035 -6.035 15.957 12.99 41.017 12.99 18.002 32.015 61.985 42.039 99.013 15.036 56.973 15.957 73.032 5.012 114.049 -18.002 64.951 -34.982 88.989 -88.989 123.05 -55.95 36.005 -191.99 55.03 -284.968 38.971m291.003 -108.014c16.979 -23.014 20.969 -43.983 20.969 -100.035 0 -38.05 -5.012 -81.01 -11.047 -94.001 -10.024 -23.014 -106.991 -73.953 -266.045 -141.973 -43.983 -18.002 -56.973 -36.005 -47.972 -64.951 7.978 -25.981 19.025 -28.026 130.005 -20.969 95.023 6.035 99.013 6.955 105.047 30.993 6.035 25.981 38.05 38.971 78.044 32.015 21.991 -3.989 23.014 -7.978 20.048 -81.01l-2.966 -75.998h-203.037c-136.961 0 -207.026 3.989 -212.959 11.047 -5.012 6.035 -7.978 45.006 -6.035 87.045 6.035 114.969 12.99 122.027 195.979 203.037 115.992 51.961 131.028 64.031 131.028 109.037 0 46.949 -16.979 52.984 -130.005 46.029 -84.999 -5.012 -95.023 -7.978 -97.99 -25.981 -7.978 -43.983 -55.03 -56.973 -92.978 -25.981 -20.969 16.979 -21.991 20.969 -11.047 57.996 6.035 20.969 20.969 48.995 32.015 60.962 20.048 20.969 28.026 21.991 185.035 21.991h163.964z"/><path d="M4020.033 8653.985c-60.962 -10.024 -96.967 -27.003 -119.981 -55.95l-24.958 -32.015v-251.009c0 -245.997 0 -251.009 23.014 -283.025 38.971 -52.984 65.974 -59.019 242.008 -50.018 188.001 10.024 190.967 10.024 216.027 45.006 30.993 42.039 37.027 78.044 18.002 97.99 -25.981 25.981 -64.031 84.999 -64.031 99.013a35.8 35.8 0 0 0 14.013 24.958c25.981 21.991 29.049 65.974 6.955 106.991s-27.003 73.953 -11.047 73.953c16.979 0 61.985 87.966 57.996 114.969 -3.989 37.027 -21.991 30.993 -25.981 -9.001 -5.012 -55.03 -14.013 -57.996 -163.964 -47.972 -78.965 6.035 -140.029 6.035 -149.951 0 -23.014 -11.047 -25.981 -123.05 -5.012 -131.028 7.978 -2.966 64.951 -1.023 127.039 3.989 132.051 10.024 142.995 6.035 137.983 -55.03l-2.966 -41.017h-270.034l-2.966 -68.02 -2.966 -69.043 142.995 2.046c209.993 2.966 190.047 7.978 185.955 -46.949l-2.966 -47.972h-203.037c-171.022 0 -203.037 2.046 -206.003 15.036 -2.046 7.978 -3.989 128.982 -3.989 267.989 0 185.035 2.966 254.998 11.967 257.965 6.035 2.046 99.013 6.035 206.003 6.955 131.028 2.046 194.957 6.035 197.002 14.013 6.035 16.979 -24.958 42.039 -64.951 51.041 -38.05 10.024 -216.027 12.99 -261.954 6.035"/><path d="M4769.992 8649.996c-64.951 -7.978 -117.015 -38.971 -149.03 -87.966 -20.048 -29.97 -23.014 -48.995 -24.037 -132.971 -1.023 -74.975 2.966 -106.991 18.002 -139.006 18.002 -38.971 18.002 -42.96 2.046 -87.966a296.629 296.629 0 0 1 -16.979 -88.989c0 -34.982 6.035 -48.995 38.05 -82.033l37.027 -38.971 105.047 -6.035c57.996 -2.966 109.957 -6.035 114.969 -6.035 6.035 0 46.029 2.046 88.989 5.012 69.963 3.989 82.954 7.978 109.037 32.015 48.995 47.972 61.985 87.966 60.962 194.036 0 78.965 -3.989 101.979 -21.991 132.051 -20.048 34.982 -20.048 38.05 -5.012 82.954 30.993 92.978 -6.035 182.989 -91.955 218.994 -33.038 14.013 -179 16.979 -265.022 5.012m303.993 -100.956a100.24 100.24 0 0 0 25.981 -69.963c0 -33.038 -3.989 -39.994 -24.958 -45.006 -37.027 -9.001 -69.963 2.966 -82.954 29.97 -10.024 23.014 -15.957 24.037 -114.049 28.026 -82.954 2.966 -105.047 1.023 -114.969 -11.047 -16.979 -19.025 -16.979 -106.991 -1.023 -118.038 6.955 -3.989 64.951 -6.035 128.982 -3.989 176.034 3.989 198.025 -12.99 199.048 -157.009 0 -101.979 -14.013 -145.041 -51.961 -158.031 -12.99 -3.989 -90.011 -7.978 -172.045 -7.978 -123.05 -1.023 -153.019 1.023 -176.034 15.036 -29.97 19.025 -54.007 73.032 -47.972 110.98 2.966 20.048 9.001 23.014 47.972 23.014s46.029 -3.989 57.996 -28.026l12.99 -28.026 117.015 2.966 117.015 2.966 2.966 54.007c2.046 29.97 -2.046 59.019 -7.978 64.951 -6.955 6.955 -60.042 11.047 -145.041 11.047 -127.039 0 -133.994 1.023 -158.952 24.037s-25.981 29.049 -25.981 131.028c0 92.978 2.966 110.98 20.969 133.994l20.048 25.981h346.953z"/><path d="M5453.977 8652.962c-32.015 -3.989 -38.05 -9.001 -95.023 -70.986 -47.972 -51.961 -36.005 -78.965 70.986 -160.998 55.95 -42.039 64.951 -65.974 61.985 -155.986 -2.046 -45.006 2.046 -113.026 7.978 -150.974 9.001 -57.996 15.957 -73.032 42.96 -96.046 25.981 -23.014 38.971 -28.026 69.963 -24.037 79.987 9.001 106.991 73.953 106.991 253.975v113.026l38.05 34.982c20.048 19.025 54.007 48.995 74.975 66.997 23.014 20.048 38.971 43.983 42.96 64.031 6.035 28.026 1.023 38.05 -38.971 79.987l-46.029 47.972 -153.019 1.023c-83.977 1.023 -167.033 0 -184.012 -2.966m377.025 -79.987c15.036 -15.036 6.955 -73.953 -12.99 -87.045 -11.967 -6.955 -36.005 -6.955 -79.987 1.023 -66.997 11.047 -83.977 9.001 -90.011 -10.024 -2.046 -6.955 0 -108.014 5.012 -225.029 5.012 -118.038 6.955 -216.027 3.989 -218.994 -12.99 -12.99 -82.954 -14.013 -92.978 -2.046 -6.955 10.024 -9.001 82.954 -3.989 224.006 2.966 115.992 3.989 216.027 2.046 222.983 -3.989 10.024 -25.981 11.967 -90.011 10.024l-84.999 -2.966 -9.001 29.97c-3.989 16.979 -6.035 38.971 -3.989 50.018 5.012 19.025 12.99 20.048 225.949 19.025 139.006 0 224.006 -3.989 230.961 -11.047"/><path d="M7784.966 8649.996c-48.995 -15.036 -113.026 -75.998 -123.97 -118.038 -18.002 -68.02 -24.958 -293.969 -11.047 -381.014 11.047 -69.963 16.979 -84.999 48.995 -118.958l36.005 -38.971 132.051 -7.978c168.976 -9.001 249.986 -1.023 284.047 29.049 59.019 51.041 61.985 63.008 65.974 258.987 5.012 230.041 1.023 257.965 -43.983 307.982 -57.996 64.031 -81.01 72.009 -227.995 74.975 -70.986 2.046 -144.018 -1.023 -159.975 -6.035m342.964 -95.023c20.969 -24.037 21.991 -33.038 21.991 -243.031 -1.023 -288.957 6.955 -279.035 -222.983 -276.99 -131.028 1.023 -149.951 3.989 -175.011 21.991l-27.003 20.048 -2.966 227.995c-2.966 297.958 -20.969 275.046 212.959 275.046 169.999 0 172.045 0 193.013 -24.958"/><path d="M7823.016 8485.009c-11.047 -7.978 -12.99 -45.006 -11.047 -180.023l2.966 -169.999h239.042l1.023 172.965c0 96.046 -2.966 176.034 -7.978 179 -15.036 9.001 -209.993 7.978 -224.006 -2.046m139.006 -117.015c21.991 -24.958 28.026 -41.017 25.981 -68.02 -2.046 -21.991 -7.978 -33.959 -15.957 -32.015 -6.955 1.023 -16.979 -9.001 -21.991 -23.014 -15.036 -38.971 -37.027 -30.993 -45.006 15.036 -7.978 50.018 2.966 140.029 18.002 140.029 5.012 0 23.014 -15.036 38.971 -32.015"/><path d="M9253.993 8640.995a191.274 191.274 0 0 1 -84.999 -114.049c-15.036 -55.95 -2.966 -181.046 23.014 -234.95l20.048 -42.96 -20.969 -23.014c-42.96 -45.006 -21.991 -164.987 38.05 -212.038 28.026 -23.014 109.957 -29.97 288.957 -25.981 81.01 2.046 83.977 2.966 122.027 39.994 36.005 33.959 41.017 43.983 50.018 112.003 14.013 96.967 5.012 181.966 -27.003 245.997 -24.037 48.995 -24.037 52.984 -9.001 82.954 9.001 16.979 16.979 46.949 18.002 65.974 1.023 29.049 -6.035 41.017 -38.05 69.963 -51.961 46.029 -87.966 55.03 -229.018 55.03 -100.035 0 -124.993 -2.966 -150.974 -19.025m369.047 -60.042c21.991 -1.023 24.037 -63.008 1.023 -84.999 -15.957 -15.957 -57.996 -15.957 -230.041 -1.023 -61.985 6.035 -77.021 -6.955 -72.009 -61.985l2.966 -38.05 118.958 -2.966c100.035 -2.046 123.05 -6.035 146.985 -23.014 38.05 -27.003 51.961 -78.965 47.972 -176.954 -3.989 -69.043 -7.978 -83.977 -29.049 -106.991 -38.971 -42.039 -56.973 -46.949 -169.999 -51.041 -155.986 -6.035 -212.959 24.958 -225.949 118.958 -6.035 42.96 -5.012 46.949 20.048 57.996 37.027 16.979 73.032 -1.023 83.977 -42.96l7.978 -33.038 100.956 -2.966 100.035 -2.966 11.047 28.026c12.99 34.982 12.99 101.979 1.023 124.993 -7.978 15.036 -29.049 18.002 -157.009 20.048l-146.985 2.966 -2.966 136.961c-2.046 123.97 -1.023 136.961 15.036 140.029s334.986 2.046 376.002 -1.023"/><path d="M6026.981 8191.04c-32.015 -34.982 -37.027 -47.972 -37.027 -88.989s5.012 -52.984 33.038 -79.987c29.049 -28.026 39.994 -32.015 86.022 -32.015 48.995 0 56.973 2.966 91.955 38.971 54.007 52.984 54.007 96.046 1.023 153.019 -33.038 34.982 -46.029 41.017 -87.966 45.006 -47.972 5.012 -51.041 3.989 -87.045 -36.005m140.95 -15.957c7.978 -2.966 11.967 -27.003 11.967 -74.975v-69.963h-140.029v68.02c0 37.027 5.012 73.032 11.047 78.965 9.001 9.001 82.954 7.978 117.015 -2.046"/></g></svg>